<?xml version="1.0" encoding="UTF-8" standalone="no"?>
<svg width="1600" xmlns="http://www.w3.org/2000/svg" xmlns:xlink="http://www.w3.org/1999/xlink" height="1200">
 <g id="g857" externalResourcesRequired="false">
  <g fill-rule="evenodd">
   <g stroke="#000">
    <g stroke-linejoin="round" stroke-width="10">
     <path id="path851" fill="#fff" d="m561.62 580.54c-122.26-113.32-483.36-257.8-272.96-430.6 560.13-407.94 1231.1 467.43 989.46 779.05-449.24 518.42-491.89-192.64-716.51-348.45zm112.23-49.498c79.612-62.325 204.72 25.496 139.32 107.65-93.828 76.488-204.72-25.497-139.32-107.65z"/>
     <g fill="none">
      <path id="path796" opacity=".8" d="m327.08 186.5c80.399-63.171 206.74 25.843 140.7 109.11-94.756 77.528-206.74-25.843-140.7-109.11z"/>
      <path id="path797" d="m648.68 131.94c80.399-63.171 206.74 25.843 140.7 109.11-94.756 77.528-206.74-25.843-140.7-109.11z"/>
      <path id="path798" d="m930.08 307.1c80.399-63.171 206.74 25.843 140.7 109.11-94.756 77.528-206.74-25.843-140.7-109.11z"/>
      <path id="path799" d="m1093.7 579.88c80.399-63.171 206.74 25.843 140.7 109.11-94.756 77.528-206.74-25.843-140.7-109.11z"/>
      <path id="path800" d="m990.38 924.45c80.399-63.171 206.74 25.843 140.7 109.11-94.756 77.528-206.74-25.843-140.7-109.11z"/>
     </g>
    </g>
    <path id="path568" stroke-width="1.25" d="m379.12 1107s54.944-4.3552 115.88-104.46c30.467-21.761 47.877-21.763 71.813-50.05 30.467-54.403 4.353-78.341-19.585-87.045-30.467 0-17.41-10.882-76.166 4.3508-58.752 45.701-54.402 50.052-56.578 106.63 6.528 71.81-15.774 115.33-35.359 130.57z"/>
   </g>
   <path id="path855" d="m1017.2 312.06c-42.697-42.697-145.17 42.697-66.181 100.34 68.316-6.4046-44.832-87.53 66.181-100.34z" fill-opacity=".25" stroke-width="1.25" fill="#fff"/>
   <g stroke-linejoin="round" stroke-width="10" stroke="#000">
    <path id="path582" d="m560 679.83c36.993-169.74 530.97-650.66 530.97-650.66v0.000069l2.1777-2.1761c-2.1777 0-187.15 541.85-402.58 718.12-32.642-36.993-39.17-23.936-63.109-45.699-17.408-6.5285-69.635-17.408-67.46-19.583z"/>
    <g id="g575" fill="none">
     <path id="path573" d="m484.11 837.15c69.637-134.92 71.813-143.62 71.813-143.62s19.585-6.5262 52.227-8.7039c30.464 10.882 39.168 13.057 60.929 28.289 13.057 26.114 28.291 41.346 28.291 41.346l-108.81 141.45s-41.346-58.754-104.46-58.754z"/>
     <path id="path570" d="m471.05 861.08c2.1777 0 45.699 4.353 60.931 8.7061 15.235 4.3507 47.874 32.64 50.052 36.993 2.1754 4.3507 4.3508 0 10.879 4.3507 6.5284 4.353 15.234-10.879 15.234-17.408-8.7038-19.585-17.774-39.804-50.416-46.333-32.642-10.882-83.6-24.21-90.126-11.153-4.353 8.7061-11.787 16.14-9.6117 18.315 2.1753 2.1777 15.234 10.882 13.057 6.5284z"/>
     <path id="path574" d="m562.45 695.7s20.219-0.63611 44.157 5.8923c19.585 4.3508 40.712 10.243 60.297 29.828 10.882 15.234 19.583 23.035 34.815 23.035 15.235 0 15.235-2.1776 15.235-15.234-4.353-13.057-15.232-26.114-32.642-43.521-17.41-13.057-45.699-23.938-71.81-32.642-26.116-2.1754-54.405-8.7061-69.637 8.7038-2.1777 10.882 2.1777 19.585 2.1777 19.585l17.408 4.353z"/>
    </g>
   </g>
   <g stroke-width="1.25" fill="#fff">
    <path id="path583" fill-opacity=".348" d="m588.57 647.82c-10.881-47.874 389.69-502.76 461.5-563.7 71.81-60.931-420.2 478.99-420.2 563.86-4.3531 4.353-43.481 2.011-41.306-0.16663z"/>
    <path id="path584" d="m393.71 1088s38.171-20.219 31.643-70.271c-6.5284-50.05-6.5293-63.107 6.5261-95.749 19.585-28.289 39.173-45.697 45.699-41.346 17.41 15.232-10.879 19.585-23.936 54.403s-4.3531 56.578-13.059 95.749c-10.879 41.346-46.873 59.392-46.873 57.214z"/>
    <g fill-opacity=".25">
     <path id="path852" d="m412.4 187.8c-42.697-42.697-145.17 42.697-66.181 100.34 68.316-6.4046-44.832-87.53 66.181-100.34z"/>
     <path id="path853" d="m1181.6 583.19c-42.698-42.697-145.17 42.697-66.181 100.34 68.316-6.4045-44.832-87.53 66.181-100.34z"/>
     <path id="path854" d="m1072.7 929.03c-42.697-42.697-145.17 42.697-66.181 100.34 68.316-6.4045-44.832-87.53 66.181-100.34z"/>
     <path id="path856" d="m737.56 132.73c-42.697-42.697-145.17 42.697-66.181 100.34 68.316-6.4045-44.832-87.53 66.181-100.34z"/>
    </g>
   </g>
  </g>
 </g>
</svg>
