<?xml version="1.0" encoding="UTF-8" standalone="no"?>
<svg width="640" xmlns="http://www.w3.org/2000/svg" xmlns:xlink="http://www.w3.org/1999/xlink" height="480">
 <defs>
  <clipPath id="clipoutline1" clipPathUnits="userSpaceOnUse">
   <path id="outline1" d="m22.42 17.2l12.96 12.95-2.5 8.78-8.78 2.5-12.96-12.96-5.86 5.86 14.89 21.46 17.56-3.34 61.63 65.62c9.44 9.51 22.17-4.75 13.34-12.87l-65.85-62.28 4.01-17.76-22.14-14.27-6.3 6.31zm81.06 91.97c1.68-1.68 4.4-1.68 6.08 0s1.68 4.4 0 6.08c-1.68 1.67-4.4 1.67-6.08 0-1.68-1.68-1.68-4.4 0-6.08z"/>
  </clipPath>
  <clipPath id="clipoutline2" clipPathUnits="userSpaceOnUse">
   <path id="outline2" d="m55.8 12l0.76 0.16c8.84-2.94 28.68 8.64 24.26 18.96-1.12 1.62-0.93 4.5 0.42 6.31l-24.81 24.82c-1.39-1.39-4.48-1.36-5.9 0l-41.03 39.38c-3.74 3.59-0.8 6.64 0.78 8.25l7.36 7.36c1.61 1.6 5.86 3.76 8.88 0.56l38.72-40.81c1.35-1.42 1.36-4.47 0-5.87 0 0 0.010002-0.020004 0-0.020004l24.91-24.9c2.63 2.37 5.1138 2.5748 7.47 1.93 4.5506-1.2454 7.0872 3.2066 9.81 6.46l-1.23 1.21c-1.82 1.84-1.65 4.94 0.39 6.98s5.15 2.21 6.97 0.39l8.14-8.13c1.82-1.84 1.65-4.94-0.39999-6.97-1.84-1.85-4.51-2.09-6.37-0.77-5.58-6.26-2.65-7.2-10.01-15.35l-13.79-14.09c-9.93-9.74-22.83-9.73-35.33-5.86z"/>
  </clipPath>
 </defs>
 <g id="configuration">
  <g id="spanner">
   <use y="90" x="55" xlink:href="#outline1" class="outline-big" transform="translate(60.199 99.582) scale(2.4776 2.2719) translate(-60.199 -99.582)"/>
   <use y="90" x="55" xlink:href="#outline1" class="outline-small" transform="translate(60.199 99.582) scale(2.4776 2.2719) translate(-60.199 -99.582)"/>
   <use y="90" x="55" xlink:href="#outline1" class="aluminium4" transform="translate(60.199 99.582) scale(2.4776 2.2719) translate(-60.199 -99.582)"/>
   <use style="clip-path:url(#clipoutline1)" xlink:href="#outline1" transform="translate(60.199 99.582) scale(2.4776 2.2719) translate(-60.199 -99.582)" y="90" x="55" class="stroke-highlight"/>
   <path class="high-specularity" d="m107.6 112.8l33.323 30.398-8.2503 26.559-27.129 7.4292-33.616-31.216-11.724 10.315 35.181 45.302 46.826-9.4058 154.85 150.77c18.582 18.857 50.047-6.0661 27.6-26.354l-165.75-143.36 9.5634-39.009-49.452-31.875-11.422 10.451zm198.13 211.97c4.1375-3.7941 11.471-4.5439 15.609-0.68158 4.2118 3.7942 7.5813 10.519 1.6104 17.812-4.9551 4.5439-12.883 4.3622-17.838-0.54526-4.1623-3.8168-3.5925-12.723 0.61938-16.585z"/>
   <path class="specularity" d="m107.27 112.85l58.148 53.731 7.9778-31.512-54.754-32.716-11.372 10.496z"/>
  </g>
  <path class="low-shade" d="m222.58 226.67l11.474 9.7239c0.94148 9.8148-1.8086 12.768-19.399 26.445l-21.307-20.947 29.21-15.222h0.022278z"/>
  <g id="hammer">
   <use y="90" x="55" xlink:href="#outline2" class="outline-big" transform="translate(60.199 99.582) scale(2.4776 2.2719) translate(-60.199 -99.582)"/>
   <use y="90" x="55" xlink:href="#outline2" class="outline-small stroke-aluminium5" transform="translate(60.199 99.582) scale(2.4776 2.2719) translate(-60.199 -99.582)"/>
   <path class="aluminium2" d="m252.76 159.03l-72.964 66.909 21.877 20.061 72.964-66.886-21.877-20.084z"/>
   <path class="specularity" d="m267.65 172.69l-72.964 66.886 6.9867 6.4296 72.964-66.886-6.9867-6.4296z"/>
   <path d="m261.53 161.96l-72.667 66.636 9.3899 8.6107 70.809-68.34-7.5318-6.9067z"/>
   <path class="aluminium6" d="m185.57 105.08l1.8829 0.3635c21.902-6.6795 71.056 19.63 60.106 43.076-2.7749 3.6806-2.3042 10.224 1.0405 14.336l22.075 19.925c6.516 5.3845 12.66 5.8389 18.507 4.3849 11.273-2.7945 17.541 7.2702 24.305 14.677l-3.0474 2.7491c-4.5092 4.1804-4.088 11.223 0.96625 15.858 5.0542 4.6348 12.759 5.021 17.269 0.88605l20.167-18.471c4.5092-4.1804 4.088-11.223-0.991-15.835-4.5588-4.2031-11.174-4.7484-15.782-1.7494-13.825-14.222-6.5655-16.358-24.8-34.874l-34.166-32.012c-24.602-22.129-56.563-22.106-87.532-13.314z"/>
   <path class="specularity" d="m332.06 185.27c-13.825-14.222-6.5655-16.358-24.8-34.874l-34.166-32.012c-14.097-12.677-30.623-18.085-47.966-18.766l101.9 94.354 7.3716-6.2024-2.3422-2.4991z"/>
   <path class="low-specularity" d="m249.12 141.43c0.12389 2.2719-0.44432 4.5439-1.6104 7.0885-2.7253 3.6806-2.2546 10.224 1.0901 14.336l22.075 19.925c6.516 5.3845 12.66 5.8389 18.507 4.3849 2.6758-0.74974 5.1038-0.61343 7.3832 0 6.9371 1.7494-47.47-46.688-47.445-45.961v0.22719z"/>
   <path d="m187.13 219.24c-3.4438-3.158-11.1-3.0898-14.618 0l-101.65 89.469c-9.2661 8.1562-2.0316 15.086 1.9325 18.744l18.235 16.721c3.9889 3.6351 14.518 8.5425 22.001 1.2723l95.931-92.718c3.3447-3.2261 3.3695-10.156 0-13.336 0 0 0.02478-0.04541 0-0.04541l-21.827-20.107z"/>
   <path class="low-shade" d="m72.762 327.43l18.235 16.744c3.9889 3.6351 14.196 8.8379 21.679 1.6131l96.303-93.081c3.3447-3.2489 3.4438-10.224 0-13.359l-21.877-20.084-114.34 108.17z"/>
   <path class="specularity" d="m174.17 227.08l-96.328 86.424c-4.0136 3.5442-2.651 8.5198 0.24775 11.11l10.232 9.0196 104.97-99.056-9.712-8.3607c-2.0812-1.8176-6.9372-1.295-9.4147 0.86331z"/>
   <use style="clip-path:url(#clipoutline2)" xlink:href="#outline2" transform="translate(60.199 99.582) scale(2.4776 2.2719) translate(-60.199 -99.582)" y="90" x="55" class="stroke-highlight"/>
   <path d="m345.74 189.73c3.7411 3.2716 4.4596 7.8155-0.6937 12.178l-9.5882 8.2471c-5.1533 4.4303-18.631-7.3838-13.503-11.791l9.6129-8.2472c5.1285-4.4303 10.43-3.6578 14.172-0.38622z"/>
  </g>
 </g>
</svg>
